<?xml version="1.0" encoding="UTF-8" standalone="no"?>
<svg
   xmlns:dc="http://purl.org/dc/elements/1.1/"
   xmlns:cc="http://creativecommons.org/ns#"
   xmlns:rdf="http://www.w3.org/1999/02/22-rdf-syntax-ns#"
   xmlns:svg="http://www.w3.org/2000/svg"
   xmlns="http://www.w3.org/2000/svg"
   xmlns:sodipodi="http://sodipodi.sourceforge.net/DTD/sodipodi-0.dtd"
   xmlns:inkscape="http://www.inkscape.org/namespaces/inkscape"
   version="1.1"
   id="svg833"
   xml:space="preserve"
   width="19.775658mm"
   height="4.5mm"
   viewBox="0 0 5932.6975 1349.9999"
   sodipodi:docname="fau.svg"
   inkscape:version="1.0.2 (e86c8708, 2021-01-15)"><metadata
     id="metadata839"><rdf:RDF><cc:Work
         rdf:about=""><dc:format>image/svg+xml</dc:format><dc:type
           rdf:resource="http://purl.org/dc/dcmitype/StillImage" /><dc:title></dc:title></cc:Work></rdf:RDF></metadata><defs
     id="defs837"><clipPath
       clipPathUnits="userSpaceOnUse"
       id="clipPath855"><path
         d="M 0,25.512 H 112.11 V 0 H 0 Z"
         id="path853" /></clipPath></defs><sodipodi:namedview
     pagecolor="#ffffff"
     bordercolor="#666666"
     borderopacity="1"
     objecttolerance="10"
     gridtolerance="10"
     guidetolerance="10"
     inkscape:pageopacity="0"
     inkscape:pageshadow="2"
     inkscape:window-width="1280"
     inkscape:window-height="755"
     id="namedview835"
     showgrid="false"
     units="mm"
     inkscape:document-units="mm"
     fit-margin-top="0"
     fit-margin-left="0"
     fit-margin-right="0"
     fit-margin-bottom="0"
     inkscape:zoom="4.1878513"
     inkscape:cx="40.116037"
     inkscape:cy="5.7848549"
     inkscape:window-x="0"
     inkscape:window-y="23"
     inkscape:window-maximized="0"
     inkscape:current-layer="g841"
     inkscape:document-rotation="0" /><g
     id="g841"
     inkscape:groupmode="layer"
     inkscape:label="fau-marca"
     transform="matrix(1.3333333,0,0,-1.3333333,0,34.01486)"><path
       d="M 0,-986.98886 H 2648.5897 V 25.511146 H 0 Z"
       style="fill:#231f20;fill-opacity:1;fill-rule:nonzero;stroke:none;stroke-width:1"
       id="path843" /><path
       d="M 2775.6495,25.491265 V -143.26535 h 1505.1169 v -843.7037 H 4449.523 V 25.491265 Z"
       style="fill:#231f20;fill-opacity:1;fill-rule:nonzero;stroke:none;stroke-width:0.999998"
       id="path847" /><path
       d="m 2831.0034,-656.41724 v 62.31136 c 0,64.85143 45.8008,77.59153 92.197,77.59153 10.835,0 17.1852,-0.63502 24.8055,-1.90506 v -37.54557 c -55.2865,3.84981 -64.8515,-19.68563 -64.8515,-45.76115 v -54.69111 h 64.8515 v -39.41094 h -64.8515 v -281.71083 h -52.151 v 281.71083 h -49.5713 v 39.41094 z"
       style="fill:#231f20;fill-opacity:1;fill-rule:nonzero;stroke:none;stroke-width:0.999998"
       id="path859" /><path
       d="m 3023.7121,-882.14708 c 0,-31.15568 15.2405,-59.13626 50.246,-59.13626 31.751,0 71.2016,19.72532 66.1215,123.35268 -49.611,-0.59533 -116.3675,3.81012 -116.3675,-64.21642 m 117.6375,-48.93624 h -1.27 c -15.9152,-36.91055 -40.7207,-52.78606 -80.8064,-52.78606 -67.9868,0 -87.7121,43.85609 -87.7121,105.53242 0,97.31685 95.3721,101.7223 168.5185,99.81724 1.27,42.62573 1.8653,89.02189 -54.0561,89.02189 -35.0055,0 -53.4211,-23.49575 -50.246,-57.23119 h -56.5962 c 2.5401,71.87634 40.681,96.68182 108.7472,96.68182 82.6717,0 104.2624,-42.62573 104.2624,-96.68182 v -154.46867 c 0,-25.48018 2.5798,-51.51601 6.3502,-76.32149 h -57.1915 z"
       style="fill:#231f20;fill-opacity:1;fill-rule:nonzero;stroke:none;stroke-width:0.999998"
       id="path863" /><path
       d="m 3443.3494,-656.41724 h 52.1113 v -254.32559 c 0,-22.30508 1.3098,-44.53079 3.2148,-66.79618 h -55.3261 v 38.81561 h -1.9051 c -17.1455,-29.29031 -47.7059,-45.16582 -81.4016,-45.16582 -55.9612,0 -86.4818,27.98058 -86.4818,82.6717 v 244.80028 h 52.151 v -222.53489 c 0,-38.81561 17.7806,-64.85144 54.6911,-64.85144 27.9806,0 62.9464,20.95567 62.9464,74.37674 z"
       style="fill:#231f20;fill-opacity:1;fill-rule:nonzero;stroke:none;stroke-width:0.999998"
       id="path867" /><path
       d="m 3741.5985,-977.53108 v 222.53489 c 0,34.37047 -12.1051,62.35104 -56.6359,62.35104 -57.1915,0 -65.4467,-50.88099 -65.4467,-94.77676 v -190.10917 h -52.1908 v 254.32559 c 0,22.30508 -1.27,44.53079 -3.1751,66.79618 h 55.3659 v -41.316 h 2.5004 c 20.3603,36.23584 44.5308,47.66621 85.8468,47.66621 68.7012,0 85.8467,-41.31601 85.8467,-104.93709 v -222.53489 z"
       style="fill:#7b756c;fill-opacity:1;fill-rule:nonzero;stroke:none;stroke-width:0.999998"
       id="path871" /><path
       d="m 3978.1038,-941.29127 c 65.4865,0 65.4865,69.97129 65.4865,118.27251 0,85.88648 -7.6203,130.37758 -63.5814,130.37758 -57.8663,0 -60.446,-68.70124 -60.446,-111.28728 0,-48.93625 -5.6755,-137.36281 58.5409,-137.36281 m -58.5409,-36.23584 h -52.1114 v 459.07991 h 52.1114 v -170.42354 h 1.9447 c 17.7806,25.48018 40.046,38.81561 70.6063,38.81561 103.6274,0 106.1675,-92.197 106.1675,-172.32861 0,-141.17293 -52.1511,-161.49357 -103.6671,-161.49357 -33.6957,0 -55.9214,14.60546 -73.7417,44.4911 h -1.3097 z"
       style="fill:#7b756c;fill-opacity:1;fill-rule:nonzero;stroke:none;stroke-width:0.999998"
       id="path875" /></g></svg>
